<?xml version="1.0" encoding="UTF-8"?><svg id="Capa_1" xmlns="http://www.w3.org/2000/svg" viewBox="0 0 16 16"><defs><style>.cls-1{fill:#3d3d3f;}</style></defs><path class="cls-1" d="M10.24,3.01h-1.03v-.3h3.18v7.28h-1.95V3.52s-.02,0-.03-.01c-.02,.05-.04,.1-.06,.14-.53,1.43-1.05,2.85-1.57,4.28-.46,1.26-.92,2.52-1.4,3.77-.12,.33-.3,.64-.48,.93-.35,.56-.88,.74-1.51,.66-.21-.03-.42-.1-.6-.2-.34-.18-.51-.5-.52-.88,0-.21,0-.43,.06-.63,.23-.77,.92-.86,1.48-.54,.17,.1,.29,.24,.39,.41,.08,.14,.18,.28,.29,.4,.16,.17,.34,.15,.47-.04,.09-.13,.17-.28,.22-.44,.12-.38,.23-.76,.34-1.15,.02-.06,.01-.14-.01-.2-.73-1.75-1.47-3.51-2.21-5.26-.19-.45-.38-.91-.58-1.36-.01-.03-.02-.05-.06-.08v6.66h-.27v-.17c0-2.23,0-4.46,0-6.69q0-.18-.17-.18c-.2,0-.41,0-.62,0v-.23s.05-.02,.08-.02c1.01,0,2.03-.01,3.04-.02,.08,0,.12,.04,.15,.1,.27,.63,.55,1.26,.82,1.89,.33,.76,.65,1.52,.97,2.28,.02,.04,.03,.07,.07,.14,.51-1.38,1-2.73,1.5-4.1Z"/></svg>